<svg width="2098" height="740" xmlns="http://www.w3.org/2000/svg">
  <g fill="none" fill-rule="evenodd">
    <g transform="matrix(-1 0 0 1 754.5 0)" fill="#2383C0">
      <path d="M385.7 0H11.3C0 0-4.5 11.4 6.8 15.9c15.9 9 81.7 47.7 81.7 47.7 22.7 11.3 29.5 38.6 18.1 61.3 0 2.2-2.2 4.5-4.5 9-131.6 156.7-109 388.2 47.6 519.9A367.6 367.6 0 0 0 669.3 606c129.3-156.6 108.9-390.4-47.6-519.8A360.1 360.1 0 0 0 385.7 0zm10.5 684.4c-162.6 0-295-131.6-295-293.2S233.6 98 396.2 98s295 131.6 295 293.2c-2.3 161.6-132.4 293.2-295 293.2z" fill-rule="nonzero"/>
      <ellipse cx="555.9" cy="370" rx="56.7" ry="84"/>
      <ellipse cx="363" cy="370" rx="81.7" ry="118"/>
    </g>
    <path d="M1358 120h680a60 60 0 0 1 60 60v380a60 60 0 0 1-60 60h-680a60 60 0 0 1-60-60V180a60 60 0 0 1 60-60zm20 50a30 30 0 0 0-30 30v340a30 30 0 0 0 30 30h640a30 30 0 0 0 30-30V200a30 30 0 0 0-30-30h-640zm159.8 73.3h42l-7.8 38h-42l7.8-38zm-12.3 59.1h42L1535.2 458h-42l32.4-155.6zm82 0h40l-3.5 16c8.5-7 16.5-12 24-15 7.3-3.1 15.3-4.6 23.8-4.6 16.3 0 29.4 5.6 39.3 16.8 10 11.2 14.9 28 14.9 50.3 0 28-8.6 51.7-25.6 71a67.4 67.4 0 0 1-52 24.8 51.8 51.8 0 0 1-46.8-25l-16.8 80.6h-42l44.8-214.9zm25.4 89.2c0 12.2 3 21.6 8.9 28.2a27 27 0 0 0 20.8 10c7 0 13.7-2.4 20.1-7.5 6.5-5 11.8-13.3 16-25a95.4 95.4 0 0 0 6.4-32.5c0-11.6-2.8-20.5-8.3-26.7a27.3 27.3 0 0 0-21.3-9.3c-8 0-15.3 2.9-21.9 8.6a55 55 0 0 0-15.3 25.2 95.7 95.7 0 0 0-5.4 29zm232.2 7.8l40.9 6.6a86.2 86.2 0 0 1-30 41.5 76.5 76.5 0 0 1-45.8 14.2c-19.8 0-35.5-6-47.1-17.8-11.7-11.8-17.5-28-17.5-48.7 0-17 3.5-32.9 10.6-48 7-15 17.6-26.8 31.8-35.5a87.7 87.7 0 0 1 46.5-13c18.4 0 33 4.9 44 14.4 11 9.6 17 22.2 18.4 37.8l-40 4.3c-1-8.7-3.6-15.1-8-19.2-4.3-4.1-10-6.2-17-6.2-8.1 0-15.7 3-22.7 9.1-7 6-12.4 15.1-16.2 27.2-3.8 12-5.6 23.3-5.6 33.9 0 9.2 2.2 16.3 6.7 21.2 4.5 5 10.1 7.5 16.9 7.5 6.7 0 13.2-2.4 19.4-7.3a47.3 47.3 0 0 0 14.7-22z" fill="#2383C0" fill-rule="nonzero"/>
    <path d="M667.3 684.4h335c119.3 0 119.3-148.8-3-148.8h-89.5c-129.7 0-129.7-161.3 0-161.3h184.6" fill-rule="nonzero" stroke="#2383C0" stroke-linecap="round" stroke-width="50"/>
    <g fill="#2383C0" fill-rule="nonzero">
      <path d="M998 278h114v184H998a60 60 0 0 1-60-60v-64a60 60 0 0 1 60-60z"/>
      <path d="M1111.5 247a29.5 29.5 0 0 1 29.5 29.5v187a29.5 29.5 0 0 1-59 0v-187a29.5 29.5 0 0 1 29.5-29.5zM1248 330c0 11-7.1 20-16 20h-75v-40h75c8.9 0 16 9 16 20zM1248 410c0 11-7.1 20-16 20h-75v-40h75c8.9 0 16 9 16 20z"/>
    </g>
  </g>
</svg>